<svg width="24" height="24" viewBox="0 0 24 24" fill="none" xmlns="http://www.w3.org/2000/svg">
<path d="M21 19V5C21 4.33333 20.6 3 19 3C17.4 3 17 4.33333 17 5V19C17 19.6667 17.4 21 19 21C20.6 21 21 19.6667 21 19Z"  stroke-width="2"/>
<path d="M14 9V19C14 19.6667 13.6 21 12 21C10.4 21 10 19.6667 10 19V9C10 8.33333 10.4 7 12 7C13.6 7 14 8.33333 14 9Z"  stroke-width="2"/>
<path d="M3 13V19C3 19.6667 3.4 21 5 21C6.6 21 7 19.6667 7 19V16V13C7 12.3333 6.6 11 5 11C3.4 11 3 12.3333 3 13Z"  stroke-width="2"/>
</svg>
