<svg width="124" height="124" viewBox="0 0 124 124" fill="none" xmlns="http://www.w3.org/2000/svg">
<circle cx="62" cy="62" r="62" fill="#F8F8F8"/>
<path d="M81.2973 77.75C78.4417 72.8131 74.041 69.2731 68.9054 67.595C71.4457 66.0827 73.4194 63.7784 74.5233 61.0359C75.6272 58.2933 75.8004 55.2643 75.0161 52.4138C74.2319 49.5633 72.5337 47.0491 70.1822 45.2572C67.8308 43.4654 64.9561 42.4949 61.9998 42.4949C59.0434 42.4949 56.1688 43.4654 53.8173 45.2572C51.4659 47.0491 49.7676 49.5633 48.9834 52.4138C48.1992 55.2643 48.3723 58.2933 49.4763 61.0359C50.5802 63.7784 52.5538 66.0827 55.0942 67.595C49.9585 69.2713 45.5579 72.8113 42.7023 77.75C42.5976 77.9208 42.5281 78.1108 42.498 78.3088C42.4679 78.5068 42.4778 78.7089 42.527 78.903C42.5763 79.0972 42.6639 79.2795 42.7848 79.4393C42.9056 79.599 43.0572 79.7329 43.2307 79.8331C43.4041 79.9333 43.5959 79.9977 43.7947 80.0226C43.9934 80.0475 44.1951 80.0323 44.3879 79.9779C44.5807 79.9236 44.7607 79.8312 44.9172 79.7062C45.0737 79.5811 45.2036 79.426 45.2992 79.25C48.8317 73.145 55.0754 69.5 61.9998 69.5C68.9242 69.5 75.1679 73.145 78.7004 79.25C78.796 79.426 78.9259 79.5811 79.0824 79.7062C79.2389 79.8312 79.4188 79.9236 79.6116 79.9779C79.8044 80.0323 80.0061 80.0475 80.2049 80.0226C80.4036 79.9977 80.5954 79.9333 80.7689 79.8331C80.9423 79.7329 81.0939 79.599 81.2148 79.4393C81.3356 79.2795 81.4233 79.0972 81.4725 78.903C81.5218 78.7089 81.5317 78.5068 81.5016 78.3088C81.4715 78.1108 81.402 77.9208 81.2973 77.75ZM51.4998 56C51.4998 53.9233 52.1156 51.8932 53.2693 50.1665C54.4231 48.4398 56.063 47.094 57.9816 46.2993C59.9002 45.5045 62.0114 45.2966 64.0482 45.7018C66.085 46.1069 67.9559 47.1069 69.4244 48.5754C70.8928 50.0438 71.8929 51.9148 72.298 53.9516C72.7032 55.9884 72.4952 58.0996 71.7005 60.0182C70.9058 61.9368 69.56 63.5767 67.8333 64.7304C66.1065 65.8842 64.0765 66.5 61.9998 66.5C59.2159 66.497 56.5469 65.3898 54.5784 63.4213C52.61 61.4529 51.5028 58.7839 51.4998 56Z" fill="#3E85F3" fill-opacity="0.18"/>
</svg>
